<svg xmlns="http://www.w3.org/2000/svg" viewBox="0 0 160 190" fill="none">
<g transform="translate(-40 20)"><ellipse cx="120" cy="105" rx="72" ry="52" fill="#33A876" stroke="#0E3B2A" stroke-width="5"/><ellipse cx="120" cy="126" rx="48" ry="27" fill="#A9E8C9" stroke="#0E3B2A" stroke-width="5"/><ellipse cx="104" cy="112" rx="4.5" ry="6" fill="#0E3B2A"/><ellipse cx="136" cy="112" rx="4.5" ry="6" fill="#0E3B2A"/><path d="M 84 124 Q 120 154 156 124 Q 120 140 84 124 Z" fill="#16181B" stroke="#0E3B2A" stroke-width="4" stroke-linejoin="round"/><path d="M 96 128 l 6 8 l 6 -5 Z" fill="#FFFFFF"/><path d="M 138 130 l 5 7 l 6 -6 Z" fill="#FFFFFF"/><circle cx="86" cy="52" r="26" fill="#33A876" stroke="#0E3B2A" stroke-width="5"/><circle cx="86" cy="52" r="15" fill="#FFFFFF" stroke="#0E3B2A" stroke-width="3"/><circle cx="86" cy="54" r="6.5" fill="#16181B"/><circle cx="88.2" cy="51.8" r="2" fill="#FFFFFF"/><circle cx="154" cy="52" r="26" fill="#33A876" stroke="#0E3B2A" stroke-width="5"/><circle cx="154" cy="52" r="15" fill="#FFFFFF" stroke="#0E3B2A" stroke-width="3"/><circle cx="154" cy="54" r="6.5" fill="#16181B"/><circle cx="156.2" cy="51.8" r="2" fill="#FFFFFF"/><circle cx="86" cy="52" r="20" fill="#16181B" fill-opacity="0.92" stroke="#5E6AD2" stroke-width="5"/><path d="M 76 46 L 84 44" stroke="#6f7ae0" stroke-width="3" stroke-linecap="round" opacity="0.7"/><circle cx="154" cy="52" r="20" fill="#16181B" fill-opacity="0.92" stroke="#5E6AD2" stroke-width="5"/><path d="M 144 46 L 152 44" stroke="#6f7ae0" stroke-width="3" stroke-linecap="round" opacity="0.7"/><path d="M 106 52 Q 120 44 134 52" stroke="#5E6AD2" stroke-width="5" fill="none"/></g>
</svg>
