<svg xmlns="http://www.w3.org/2000/svg" viewBox="0 0 160 190" fill="none">
<g transform="translate(-40 20)"><ellipse cx="120" cy="105" rx="72" ry="52" fill="#33A876" stroke="#0E3B2A" stroke-width="5"/><rect x="54" y="86" width="9" height="7" rx="2.5" fill="#22815A" opacity="0.55"/><rect x="177" y="86" width="9" height="7" rx="2.5" fill="#22815A" opacity="0.55"/><ellipse cx="120" cy="126" rx="48" ry="27" fill="#A9E8C9" stroke="#0E3B2A" stroke-width="5"/><ellipse cx="104" cy="112" rx="4.5" ry="6" fill="#0E3B2A"/><ellipse cx="136" cy="112" rx="4.5" ry="6" fill="#0E3B2A"/><path d="M 100 136 Q 110 131 120 135 Q 130 139 140 134" stroke="#0E3B2A" stroke-width="5" stroke-linecap="round" fill="none"/><circle cx="86" cy="52" r="26" fill="#33A876" stroke="#0E3B2A" stroke-width="5"/><circle cx="86" cy="52" r="15" fill="#FFFFFF" stroke="#0E3B2A" stroke-width="3"/><circle cx="91" cy="48" r="6.5" fill="#16181B"/><circle cx="93.2" cy="45.8" r="2" fill="#FFFFFF"/><circle cx="154" cy="52" r="26" fill="#33A876" stroke="#0E3B2A" stroke-width="5"/><circle cx="154" cy="52" r="15" fill="#FFFFFF" stroke="#0E3B2A" stroke-width="3"/><circle cx="159" cy="48" r="6.5" fill="#16181B"/><circle cx="161.2" cy="45.8" r="2" fill="#FFFFFF"/><circle cx="86" cy="52" r="20" fill="none" stroke="#5E6AD2" stroke-width="5"/><circle cx="154" cy="52" r="20" fill="none" stroke="#5E6AD2" stroke-width="5"/><path d="M 106 52 Q 120.0 44 134 52" stroke="#5E6AD2" stroke-width="5" fill="none"/><circle cx="188" cy="40" r="4" fill="#22815A"/><circle cx="200" cy="26" r="6" fill="#22815A"/></g>
</svg>
