<svg xmlns="http://www.w3.org/2000/svg" viewBox="0 0 160 190" fill="none">
<g transform="translate(-40 20)"><ellipse cx="120" cy="105" rx="72" ry="52" fill="#33A876" stroke="#0E3B2A" stroke-width="5"/><ellipse cx="120" cy="126" rx="48" ry="27" fill="#A9E8C9" stroke="#0E3B2A" stroke-width="5"/><ellipse cx="104" cy="112" rx="4.5" ry="6" fill="#0E3B2A"/><ellipse cx="136" cy="112" rx="4.5" ry="6" fill="#0E3B2A"/><path d="M 88 128 Q 120 150 152 128" stroke="#0E3B2A" stroke-width="5" stroke-linecap="round" fill="none"/><path d="M 100 133 l 7 9 l 7 -6 Z" fill="#FFFFFF" stroke="#0E3B2A" stroke-width="2.5" stroke-linejoin="round"/><path d="M 134 135 l 6 8 l 7 -7 Z" fill="#FFFFFF" stroke="#0E3B2A" stroke-width="2.5" stroke-linejoin="round"/><circle cx="86" cy="52" r="26" fill="#33A876" stroke="#0E3B2A" stroke-width="5"/><path d="M 74 54 Q 86 62 98 54" stroke="#0E3B2A" stroke-width="5" stroke-linecap="round"/><circle cx="154" cy="52" r="26" fill="#33A876" stroke="#0E3B2A" stroke-width="5"/><path d="M 142 54 Q 154 62 166 54" stroke="#0E3B2A" stroke-width="5" stroke-linecap="round"/><circle cx="86" cy="52" r="20" fill="none" fill-opacity="0.92" stroke="#5E6AD2" stroke-width="5"/><circle cx="154" cy="52" r="20" fill="none" fill-opacity="0.92" stroke="#5E6AD2" stroke-width="5"/><path d="M 106 52 Q 120 44 134 52" stroke="#5E6AD2" stroke-width="5" fill="none"/></g>
</svg>
