<svg xmlns="http://www.w3.org/2000/svg" viewBox="0 0 160 190" fill="none">
<g transform="translate(-40 20)"><ellipse cx="120" cy="105" rx="72" ry="52" fill="#33A876" stroke="#0E3B2A" stroke-width="5"/><ellipse cx="120" cy="126" rx="48" ry="27" fill="#A9E8C9" stroke="#0E3B2A" stroke-width="5"/><ellipse cx="104" cy="112" rx="4.5" ry="6" fill="#0E3B2A"/><ellipse cx="136" cy="112" rx="4.5" ry="6" fill="#0E3B2A"/><path d="M 94 140 Q 120 126 146 140" stroke="#0E3B2A" stroke-width="5" stroke-linecap="round" fill="none"/><circle cx="86" cy="52" r="26" fill="#33A876" stroke="#0E3B2A" stroke-width="5"/><circle cx="86" cy="52" r="15" fill="#FFFFFF" stroke="#0E3B2A" stroke-width="3"/><circle cx="86" cy="59" r="6.5" fill="#16181B"/><circle cx="88.2" cy="56.8" r="2" fill="#FFFFFF"/><circle cx="154" cy="52" r="26" fill="#33A876" stroke="#0E3B2A" stroke-width="5"/><circle cx="154" cy="52" r="15" fill="#FFFFFF" stroke="#0E3B2A" stroke-width="3"/><circle cx="154" cy="59" r="6.5" fill="#16181B"/><circle cx="156.2" cy="56.8" r="2" fill="#FFFFFF"/><circle cx="86" cy="52" r="20" fill="none" fill-opacity="0.92" stroke="#5E6AD2" stroke-width="5"/><circle cx="154" cy="52" r="20" fill="none" fill-opacity="0.92" stroke="#5E6AD2" stroke-width="5"/><path d="M 106 52 Q 120 44 134 52" stroke="#5E6AD2" stroke-width="5" fill="none"/><path d="M 196 58 q 9 12 0 18 q -9 -6 0 -18 Z" fill="#4493F8" stroke="#0E3B2A" stroke-width="3"/></g>
</svg>
