<svg xmlns="http://www.w3.org/2000/svg" viewBox="0 0 160 190" fill="none">
<g transform="translate(-40 20)"><ellipse cx="120" cy="105" rx="72" ry="52" fill="#33A876" stroke="#0E3B2A" stroke-width="5"/><rect x="54" y="86" width="9" height="7" rx="2.5" fill="#22815A" opacity="0.55"/><rect x="177" y="86" width="9" height="7" rx="2.5" fill="#22815A" opacity="0.55"/><ellipse cx="120" cy="126" rx="48" ry="27" fill="#A9E8C9" stroke="#0E3B2A" stroke-width="5"/><ellipse cx="104" cy="112" rx="4.5" ry="6" fill="#0E3B2A"/><ellipse cx="136" cy="112" rx="4.5" ry="6" fill="#0E3B2A"/><path d="M 84 124 Q 120 154 156 124 Q 120 140 84 124 Z" fill="#16181B" stroke="#0E3B2A" stroke-width="4" stroke-linejoin="round"/><path d="M 96 128 l 6 8 l 6 -5 Z" fill="#FFFFFF"/><path d="M 138 130 l 5 7 l 6 -6 Z" fill="#FFFFFF"/><circle cx="86" cy="52" r="26" fill="#33A876" stroke="#0E3B2A" stroke-width="5"/><circle cx="86" cy="52" r="15" fill="#FFFFFF" stroke="#0E3B2A" stroke-width="3"/><path d="M 86 43 L 88.6 49.2 L 95 49.4 L 90 53.8 L 91.6 60.4 L 86 56.6 L 80.4 60.4 L 82 53.8 L 77 49.4 L 83.4 49.2 Z" fill="#F5A623"/><circle cx="154" cy="52" r="26" fill="#33A876" stroke="#0E3B2A" stroke-width="5"/><circle cx="154" cy="52" r="15" fill="#FFFFFF" stroke="#0E3B2A" stroke-width="3"/><path d="M 154 43 L 156.6 49.2 L 163 49.4 L 158 53.8 L 159.6 60.4 L 154 56.6 L 148.4 60.4 L 150 53.8 L 145 49.4 L 151.4 49.2 Z" fill="#F5A623"/><circle cx="86" cy="52" r="20" fill="none" stroke="#5E6AD2" stroke-width="5"/><circle cx="154" cy="52" r="20" fill="none" stroke="#5E6AD2" stroke-width="5"/><path d="M 106 52 Q 120.0 44 134 52" stroke="#5E6AD2" stroke-width="5" fill="none"/></g>
</svg>
