<svg xmlns="http://www.w3.org/2000/svg" viewBox="0 0 160 190" fill="none">
<g transform="translate(-40 20)"><ellipse cx="120" cy="105" rx="72" ry="52" fill="#33A876" stroke="#0E3B2A" stroke-width="5"/><ellipse cx="120" cy="126" rx="48" ry="27" fill="#A9E8C9" stroke="#0E3B2A" stroke-width="5"/><ellipse cx="104" cy="112" rx="4.5" ry="6" fill="#0E3B2A"/><ellipse cx="136" cy="112" rx="4.5" ry="6" fill="#0E3B2A"/><path d="M 92 132 Q 120 142 148 130" stroke="#0E3B2A" stroke-width="5" stroke-linecap="round" fill="none"/><path d="M 102 134 l 6 9 l 7 -6 Z" fill="#FFFFFF" stroke="#0E3B2A" stroke-width="2.5" stroke-linejoin="round"/><circle cx="86" cy="52" r="26" fill="#33A876" stroke="#0E3B2A" stroke-width="5"/><circle cx="86" cy="52" r="15" fill="#FFFFFF" stroke="#0E3B2A" stroke-width="3"/><circle cx="86" cy="54" r="6.5" fill="#16181B"/><circle cx="88.2" cy="51.8" r="2" fill="#FFFFFF"/><path d="M 70 46 A 16 16 0 0 1 102 46 L 102 36 A 26 26 0 0 0 70 36 Z" fill="#33A876"/><line x1="71" y1="46" x2="101" y2="46" stroke="#0E3B2A" stroke-width="3"/><circle cx="154" cy="52" r="26" fill="#33A876" stroke="#0E3B2A" stroke-width="5"/><circle cx="154" cy="52" r="15" fill="#FFFFFF" stroke="#0E3B2A" stroke-width="3"/><circle cx="154" cy="54" r="6.5" fill="#16181B"/><circle cx="156.2" cy="51.8" r="2" fill="#FFFFFF"/><path d="M 138 46 A 16 16 0 0 1 170 46 L 170 36 A 26 26 0 0 0 138 36 Z" fill="#33A876"/><line x1="139" y1="46" x2="169" y2="46" stroke="#0E3B2A" stroke-width="3"/><circle cx="86" cy="52" r="20" fill="none" fill-opacity="0.92" stroke="#5E6AD2" stroke-width="5"/><circle cx="154" cy="52" r="20" fill="none" fill-opacity="0.92" stroke="#5E6AD2" stroke-width="5"/><path d="M 106 52 Q 120 44 134 52" stroke="#5E6AD2" stroke-width="5" fill="none"/></g>
</svg>
