<svg xmlns="http://www.w3.org/2000/svg" viewBox="0 0 160 190" fill="none">
<g transform="translate(-40 20)"><ellipse cx="120" cy="105" rx="72" ry="52" fill="#33A876" stroke="#0E3B2A" stroke-width="5"/><rect x="54" y="86" width="9" height="7" rx="2.5" fill="#22815A" opacity="0.55"/><rect x="177" y="86" width="9" height="7" rx="2.5" fill="#22815A" opacity="0.55"/><ellipse cx="120" cy="126" rx="48" ry="27" fill="#A9E8C9" stroke="#0E3B2A" stroke-width="5"/><ellipse cx="104" cy="112" rx="4.5" ry="6" fill="#0E3B2A"/><ellipse cx="136" cy="112" rx="4.5" ry="6" fill="#0E3B2A"/><path d="M 92 130 Q 120 146 148 130" stroke="#0E3B2A" stroke-width="5" stroke-linecap="round" fill="none"/><circle cx="86" cy="52" r="26" fill="#33A876" stroke="#0E3B2A" stroke-width="5"/><path d="M 74 54 Q 86 62 98 54" stroke="#0E3B2A" stroke-width="5" stroke-linecap="round"/><circle cx="154" cy="52" r="26" fill="#33A876" stroke="#0E3B2A" stroke-width="5"/><path d="M 142 54 Q 154 62 166 54" stroke="#0E3B2A" stroke-width="5" stroke-linecap="round"/><circle cx="86" cy="52" r="20" fill="none" stroke="#5E6AD2" stroke-width="5"/><circle cx="154" cy="52" r="20" fill="none" stroke="#5E6AD2" stroke-width="5"/><path d="M 106 52 Q 120.0 44 134 52" stroke="#5E6AD2" stroke-width="5" fill="none"/></g>
</svg>
