<svg xmlns="http://www.w3.org/2000/svg" viewBox="0 0 160 190" fill="none">
<g transform="translate(-40 20)"><ellipse cx="120" cy="105" rx="72" ry="52" fill="#33A876" stroke="#0E3B2A" stroke-width="5"/><ellipse cx="120" cy="126" rx="48" ry="27" fill="#A9E8C9" stroke="#0E3B2A" stroke-width="5"/><ellipse cx="104" cy="112" rx="4.5" ry="6" fill="#0E3B2A"/><ellipse cx="136" cy="112" rx="4.5" ry="6" fill="#0E3B2A"/><path d="M 96 134 L 144 132" stroke="#0E3B2A" stroke-width="5" stroke-linecap="round"/><path d="M 104 136 l 6 8 l 6 -6 Z" fill="#FFFFFF" stroke="#0E3B2A" stroke-width="2.5" stroke-linejoin="round"/><circle cx="86" cy="52" r="26" fill="#33A876" stroke="#0E3B2A" stroke-width="5"/><circle cx="86" cy="52" r="15" fill="#FFFFFF" stroke="#0E3B2A" stroke-width="3"/><circle cx="92" cy="55" r="6.5" fill="#16181B"/><circle cx="94.2" cy="52.8" r="2" fill="#FFFFFF"/><path d="M 70 46 A 16 16 0 0 1 102 46 L 102 36 A 26 26 0 0 0 70 36 Z" fill="#33A876"/><line x1="71" y1="46" x2="101" y2="46" stroke="#0E3B2A" stroke-width="3"/><circle cx="154" cy="52" r="26" fill="#33A876" stroke="#0E3B2A" stroke-width="5"/><circle cx="154" cy="52" r="15" fill="#FFFFFF" stroke="#0E3B2A" stroke-width="3"/><circle cx="160" cy="55" r="6.5" fill="#16181B"/><circle cx="162.2" cy="52.8" r="2" fill="#FFFFFF"/><circle cx="86" cy="52" r="20" fill="none" fill-opacity="0.92" stroke="#5E6AD2" stroke-width="5"/><circle cx="154" cy="52" r="20" fill="none" fill-opacity="0.92" stroke="#5E6AD2" stroke-width="5"/><path d="M 106 52 Q 120 44 134 52" stroke="#5E6AD2" stroke-width="5" fill="none"/><path d="M 140 20 Q 154 14 168 22" stroke="#0E3B2A" stroke-width="5" stroke-linecap="round" fill="none"/></g>
</svg>
