<svg xmlns="http://www.w3.org/2000/svg" viewBox="0 0 240 250" fill="none">
<path d="M 150 196 Q 208 200 220 176 Q 226 164 216 160 Q 222 150 210 148 Q 216 138 200 140 Q 172 146 150 172 Z" fill="#33A876" stroke="#0E3B2A" stroke-width="5" stroke-linejoin="round"/><path d="M 164 158 l 7 -10 l 5 9 Z" fill="#22815A" stroke="#0E3B2A" stroke-width="3" stroke-linejoin="round"/><path d="M 178 150 l 8 -12 l 6 10 Z" fill="#22815A" stroke="#0E3B2A" stroke-width="3" stroke-linejoin="round"/><path d="M 196 144 l 8 -11 l 5 10 Z" fill="#22815A" stroke="#0E3B2A" stroke-width="3" stroke-linejoin="round"/><rect x="88" y="208" width="26" height="26" rx="12" fill="#33A876" stroke="#0E3B2A" stroke-width="5"/><line x1="97" y1="228" x2="97" y2="234" stroke="#0E3B2A" stroke-width="2.5"/><line x1="105" y1="228" x2="105" y2="234" stroke="#0E3B2A" stroke-width="2.5"/><rect x="126" y="208" width="26" height="26" rx="12" fill="#33A876" stroke="#0E3B2A" stroke-width="5"/><line x1="135" y1="228" x2="135" y2="234" stroke="#0E3B2A" stroke-width="2.5"/><line x1="143" y1="228" x2="143" y2="234" stroke="#0E3B2A" stroke-width="2.5"/><ellipse cx="120" cy="188" rx="46" ry="38" fill="#33A876" stroke="#0E3B2A" stroke-width="5"/><ellipse cx="120" cy="194" rx="30" ry="27" fill="#A9E8C9" stroke="#0E3B2A" stroke-width="3"/><path d="M 94 188 Q 120 194 146 188" stroke="#0E3B2A" stroke-width="2.5" opacity="0.18" fill="none"/><path d="M 96 200 Q 120 206 144 200" stroke="#0E3B2A" stroke-width="2.5" opacity="0.18" fill="none"/><path d="M 84 178 L 64 200" stroke="#0E3B2A" stroke-width="18" stroke-linecap="round"/><path d="M 84 178 L 64 200" stroke="#33A876" stroke-width="13" stroke-linecap="round"/><circle cx="63" cy="202" r="11" fill="#33A876" stroke="#0E3B2A" stroke-width="5"/><g transform="translate(0 0) rotate(170 63 202)"><line x1="59" y1="191" x2="59" y2="198" stroke="#0E3B2A" stroke-width="2.5"/><line x1="66" y1="191" x2="66" y2="198" stroke="#0E3B2A" stroke-width="2.5"/></g><path d="M 156 178 L 178 162" stroke="#0E3B2A" stroke-width="18" stroke-linecap="round"/><path d="M 156 178 L 178 162" stroke="#33A876" stroke-width="13" stroke-linecap="round"/><g transform="translate(0 0) rotate(-8 186 148)"><rect x="168" y="118" width="36" height="60" rx="7" fill="#16181B" stroke="#0E3B2A" stroke-width="4"/><rect x="173" y="125" width="26" height="42" rx="3" fill="#0F1011"/><path d="M 177 156 l 6 -7 l 5 3 l 8 -10" stroke="#2EBD85" stroke-width="3.5" fill="none" stroke-linecap="round" stroke-linejoin="round"/><circle cx="186" cy="172" r="2.5" fill="#3A3D42"/></g><circle cx="178" cy="166" r="11" fill="#33A876" stroke="#0E3B2A" stroke-width="5"/><ellipse cx="120" cy="105" rx="72" ry="52" fill="#33A876" stroke="#0E3B2A" stroke-width="5"/><rect x="54" y="86" width="9" height="7" rx="2.5" fill="#22815A" opacity="0.55"/><rect x="177" y="86" width="9" height="7" rx="2.5" fill="#22815A" opacity="0.55"/><ellipse cx="120" cy="126" rx="48" ry="27" fill="#A9E8C9" stroke="#0E3B2A" stroke-width="5"/><ellipse cx="104" cy="112" rx="4.5" ry="6" fill="#0E3B2A"/><ellipse cx="136" cy="112" rx="4.5" ry="6" fill="#0E3B2A"/><path d="M 92 132 Q 120 142 148 130" stroke="#0E3B2A" stroke-width="5" stroke-linecap="round" fill="none"/><path d="M 102 134 l 7 9 l 7 -6 Z" fill="#FFFFFF" stroke="#0E3B2A" stroke-width="2.5" stroke-linejoin="round"/><circle cx="86" cy="52" r="26" fill="#33A876" stroke="#0E3B2A" stroke-width="5"/><circle cx="86" cy="52" r="15" fill="#FFFFFF" stroke="#0E3B2A" stroke-width="3"/><circle cx="92" cy="58" r="6.5" fill="#16181B"/><circle cx="94.2" cy="55.8" r="2" fill="#FFFFFF"/><circle cx="154" cy="52" r="26" fill="#33A876" stroke="#0E3B2A" stroke-width="5"/><circle cx="154" cy="52" r="15" fill="#FFFFFF" stroke="#0E3B2A" stroke-width="3"/><circle cx="160" cy="58" r="6.5" fill="#16181B"/><circle cx="162.2" cy="55.8" r="2" fill="#FFFFFF"/><circle cx="86" cy="52" r="20" fill="none" stroke="#5E6AD2" stroke-width="5"/><circle cx="154" cy="52" r="20" fill="none" stroke="#5E6AD2" stroke-width="5"/><path d="M 106 52 Q 120.0 44 134 52" stroke="#5E6AD2" stroke-width="5" fill="none"/>
</svg>
