<svg xmlns="http://www.w3.org/2000/svg" viewBox="0 0 240 250" fill="none">
<g transform="translate(240 0) scale(-1 1)"><path d="M 150 196 Q 208 200 220 176 Q 226 164 216 160 Q 222 150 210 148 Q 216 138 200 140 Q 172 146 150 172 Z" fill="#33A876" stroke="#0E3B2A" stroke-width="5" stroke-linejoin="round"/><path d="M 178 150 l 8 -12 l 6 10 Z" fill="#22815A" stroke="#0E3B2A" stroke-width="3" stroke-linejoin="round"/><path d="M 196 144 l 8 -11 l 5 10 Z" fill="#22815A" stroke="#0E3B2A" stroke-width="3" stroke-linejoin="round"/></g><rect x="88" y="208" width="26" height="26" rx="12" fill="#33A876" stroke="#0E3B2A" stroke-width="5"/><rect x="126" y="208" width="26" height="26" rx="12" fill="#33A876" stroke="#0E3B2A" stroke-width="5"/><ellipse cx="120" cy="188" rx="46" ry="38" fill="#33A876" stroke="#0E3B2A" stroke-width="5"/><ellipse cx="120" cy="194" rx="30" ry="27" fill="#A9E8C9"/><rect x="10" y="150" width="72" height="66" rx="8" fill="#16181B" stroke="#0E3B2A" stroke-width="4"/><rect x="20" y="188" width="10" height="20" rx="2" fill="#2EBD85"/><rect x="36" y="176" width="10" height="32" rx="2" fill="#2EBD85"/><rect x="52" y="182" width="10" height="26" rx="2" fill="#E5484D"/><rect x="68" y="164" width="6" height="44" rx="2" fill="#5E6AD2" opacity="0"/><rect x="66" y="166" width="10" height="42" rx="2" fill="#2EBD85"/><path d="M 156 178 L 186 160" stroke="#0E3B2A" stroke-width="18" stroke-linecap="round"/><path d="M 156 178 L 186 160" stroke="#33A876" stroke-width="13" stroke-linecap="round"/><ellipse cx="120" cy="105" rx="72" ry="52" fill="#33A876" stroke="#0E3B2A" stroke-width="5"/><ellipse cx="120" cy="126" rx="48" ry="27" fill="#A9E8C9" stroke="#0E3B2A" stroke-width="5"/><ellipse cx="104" cy="112" rx="4.5" ry="6" fill="#0E3B2A"/><ellipse cx="136" cy="112" rx="4.5" ry="6" fill="#0E3B2A"/><path d="M 92 132 Q 120 142 148 130" stroke="#0E3B2A" stroke-width="5" stroke-linecap="round" fill="none"/><path d="M 102 134 l 6 9 l 7 -6 Z" fill="#FFFFFF" stroke="#0E3B2A" stroke-width="2.5" stroke-linejoin="round"/><circle cx="86" cy="52" r="26" fill="#33A876" stroke="#0E3B2A" stroke-width="5"/><circle cx="86" cy="52" r="15" fill="#FFFFFF" stroke="#0E3B2A" stroke-width="3"/><circle cx="86" cy="54" r="6.5" fill="#16181B"/><circle cx="88.2" cy="51.8" r="2" fill="#FFFFFF"/><path d="M 70 46 A 16 16 0 0 1 102 46 L 102 36 A 26 26 0 0 0 70 36 Z" fill="#33A876"/><line x1="71" y1="46" x2="101" y2="46" stroke="#0E3B2A" stroke-width="3"/><circle cx="154" cy="52" r="26" fill="#33A876" stroke="#0E3B2A" stroke-width="5"/><circle cx="154" cy="52" r="15" fill="#FFFFFF" stroke="#0E3B2A" stroke-width="3"/><circle cx="154" cy="54" r="6.5" fill="#16181B"/><circle cx="156.2" cy="51.8" r="2" fill="#FFFFFF"/><path d="M 138 46 A 16 16 0 0 1 170 46 L 170 36 A 26 26 0 0 0 138 36 Z" fill="#33A876"/><line x1="139" y1="46" x2="169" y2="46" stroke="#0E3B2A" stroke-width="3"/><circle cx="86" cy="52" r="20" fill="none" fill-opacity="0.92" stroke="#5E6AD2" stroke-width="5"/><circle cx="154" cy="52" r="20" fill="none" fill-opacity="0.92" stroke="#5E6AD2" stroke-width="5"/><path d="M 106 52 Q 120 44 134 52" stroke="#5E6AD2" stroke-width="5" fill="none"/><path d="M 84 182 L 88 180" stroke="#0E3B2A" stroke-width="18" stroke-linecap="round"/><path d="M 84 182 L 88 180" stroke="#33A876" stroke-width="13" stroke-linecap="round"/><circle cx="60" cy="150" r="24" fill="#4493F8" fill-opacity="0.18" stroke="#5E6AD2" stroke-width="6"/><line x1="78" y1="168" x2="96" y2="186" stroke="#4A54B0" stroke-width="9" stroke-linecap="round"/>
</svg>
