<svg xmlns="http://www.w3.org/2000/svg" viewBox="0 0 240 250" fill="none">
<rect x="30" y="40" width="9" height="9" rx="2" fill="#2EBD85" transform="rotate(20 30 40)"/><rect x="60" y="18" width="9" height="9" rx="2" fill="#5E6AD2" transform="rotate(-15 60 18)"/><rect x="196" y="30" width="9" height="9" rx="2" fill="#F5A623" transform="rotate(30 196 30)"/><rect x="216" y="64" width="9" height="9" rx="2" fill="#2EBD85" transform="rotate(-20 216 64)"/><rect x="18" y="90" width="9" height="9" rx="2" fill="#5E6AD2" transform="rotate(10 18 90)"/><rect x="222" y="110" width="9" height="9" rx="2" fill="#F5A623" transform="rotate(-30 222 110)"/><rect x="48" y="64" width="9" height="9" rx="2" fill="#F5A623" transform="rotate(45 48 64)"/><rect x="206" y="14" width="9" height="9" rx="2" fill="#5E6AD2" transform="rotate(15 206 14)"/><path d="M 150 196 Q 208 200 220 176 Q 226 164 216 160 Q 222 150 210 148 Q 216 138 200 140 Q 172 146 150 172 Z" fill="#33A876" stroke="#0E3B2A" stroke-width="5" stroke-linejoin="round"/><path d="M 164 158 l 7 -10 l 5 9 Z" fill="#22815A" stroke="#0E3B2A" stroke-width="3" stroke-linejoin="round"/><path d="M 178 150 l 8 -12 l 6 10 Z" fill="#22815A" stroke="#0E3B2A" stroke-width="3" stroke-linejoin="round"/><path d="M 196 144 l 8 -11 l 5 10 Z" fill="#22815A" stroke="#0E3B2A" stroke-width="3" stroke-linejoin="round"/><rect x="88" y="208" width="26" height="26" rx="12" fill="#33A876" stroke="#0E3B2A" stroke-width="5"/><line x1="97" y1="228" x2="97" y2="234" stroke="#0E3B2A" stroke-width="2.5"/><line x1="105" y1="228" x2="105" y2="234" stroke="#0E3B2A" stroke-width="2.5"/><rect x="126" y="208" width="26" height="26" rx="12" fill="#33A876" stroke="#0E3B2A" stroke-width="5"/><line x1="135" y1="228" x2="135" y2="234" stroke="#0E3B2A" stroke-width="2.5"/><line x1="143" y1="228" x2="143" y2="234" stroke="#0E3B2A" stroke-width="2.5"/><ellipse cx="120" cy="188" rx="46" ry="38" fill="#33A876" stroke="#0E3B2A" stroke-width="5"/><ellipse cx="120" cy="194" rx="30" ry="27" fill="#A9E8C9" stroke="#0E3B2A" stroke-width="3"/><path d="M 94 188 Q 120 194 146 188" stroke="#0E3B2A" stroke-width="2.5" opacity="0.18" fill="none"/><path d="M 96 200 Q 120 206 144 200" stroke="#0E3B2A" stroke-width="2.5" opacity="0.18" fill="none"/><path d="M 84 178 L 48 134" stroke="#0E3B2A" stroke-width="18" stroke-linecap="round"/><path d="M 84 178 L 48 134" stroke="#33A876" stroke-width="13" stroke-linecap="round"/><circle cx="45" cy="130" r="11" fill="#33A876" stroke="#0E3B2A" stroke-width="5"/><g transform="translate(0 0) rotate(-25 45 130)"><line x1="41" y1="119" x2="41" y2="126" stroke="#0E3B2A" stroke-width="2.5"/><line x1="48" y1="119" x2="48" y2="126" stroke="#0E3B2A" stroke-width="2.5"/></g><path d="M 156 178 L 192 134" stroke="#0E3B2A" stroke-width="18" stroke-linecap="round"/><path d="M 156 178 L 192 134" stroke="#33A876" stroke-width="13" stroke-linecap="round"/><circle cx="195" cy="130" r="11" fill="#33A876" stroke="#0E3B2A" stroke-width="5"/><g transform="translate(0 0) rotate(25 195 130)"><line x1="191" y1="119" x2="191" y2="126" stroke="#0E3B2A" stroke-width="2.5"/><line x1="198" y1="119" x2="198" y2="126" stroke="#0E3B2A" stroke-width="2.5"/></g><ellipse cx="120" cy="105" rx="72" ry="52" fill="#33A876" stroke="#0E3B2A" stroke-width="5"/><rect x="54" y="86" width="9" height="7" rx="2.5" fill="#22815A" opacity="0.55"/><rect x="177" y="86" width="9" height="7" rx="2.5" fill="#22815A" opacity="0.55"/><ellipse cx="120" cy="126" rx="48" ry="27" fill="#A9E8C9" stroke="#0E3B2A" stroke-width="5"/><ellipse cx="104" cy="112" rx="4.5" ry="6" fill="#0E3B2A"/><ellipse cx="136" cy="112" rx="4.5" ry="6" fill="#0E3B2A"/><path d="M 84 124 Q 120 154 156 124 Q 120 140 84 124 Z" fill="#16181B" stroke="#0E3B2A" stroke-width="4" stroke-linejoin="round"/><path d="M 96 128 l 6 8 l 6 -5 Z" fill="#FFFFFF"/><path d="M 138 130 l 5 7 l 6 -6 Z" fill="#FFFFFF"/><circle cx="86" cy="52" r="26" fill="#33A876" stroke="#0E3B2A" stroke-width="5"/><circle cx="86" cy="52" r="15" fill="#FFFFFF" stroke="#0E3B2A" stroke-width="3"/><path d="M 86 43 L 88.6 49.2 L 95 49.4 L 90 53.8 L 91.6 60.4 L 86 56.6 L 80.4 60.4 L 82 53.8 L 77 49.4 L 83.4 49.2 Z" fill="#F5A623"/><circle cx="154" cy="52" r="26" fill="#33A876" stroke="#0E3B2A" stroke-width="5"/><circle cx="154" cy="52" r="15" fill="#FFFFFF" stroke="#0E3B2A" stroke-width="3"/><path d="M 154 43 L 156.6 49.2 L 163 49.4 L 158 53.8 L 159.6 60.4 L 154 56.6 L 148.4 60.4 L 150 53.8 L 145 49.4 L 151.4 49.2 Z" fill="#F5A623"/><circle cx="86" cy="52" r="20" fill="none" stroke="#5E6AD2" stroke-width="5"/><circle cx="154" cy="52" r="20" fill="none" stroke="#5E6AD2" stroke-width="5"/><path d="M 106 52 Q 120.0 44 134 52" stroke="#5E6AD2" stroke-width="5" fill="none"/>
</svg>
