<svg xmlns="http://www.w3.org/2000/svg" viewBox="0 0 240 250" fill="none">
<g transform="translate(10 22)"><path d="M 150 196 Q 208 200 220 176 Q 226 164 216 160 Q 222 150 210 148 Q 216 138 200 140 Q 172 146 150 172 Z" fill="#33A876" stroke="#0E3B2A" stroke-width="5" stroke-linejoin="round"/><path d="M 164 158 l 7 -10 l 5 9 Z" fill="#22815A" stroke="#0E3B2A" stroke-width="3" stroke-linejoin="round"/><path d="M 178 150 l 8 -12 l 6 10 Z" fill="#22815A" stroke="#0E3B2A" stroke-width="3" stroke-linejoin="round"/><path d="M 196 144 l 8 -11 l 5 10 Z" fill="#22815A" stroke="#0E3B2A" stroke-width="3" stroke-linejoin="round"/></g><rect x="132" y="208" width="22" height="26" rx="11" fill="#22815A" stroke="#0E3B2A" stroke-width="4"/><ellipse cx="126" cy="188" rx="38" ry="36" fill="#33A876" stroke="#0E3B2A" stroke-width="5"/><rect x="100" y="212" width="26" height="26" rx="12" fill="#33A876" stroke="#0E3B2A" stroke-width="5"/><line x1="109" y1="232" x2="109" y2="238" stroke="#0E3B2A" stroke-width="2.5"/><line x1="117" y1="232" x2="117" y2="238" stroke="#0E3B2A" stroke-width="2.5"/><ellipse cx="102" cy="196" rx="15" ry="19" fill="#A9E8C9" stroke="#0E3B2A" stroke-width="3"/><path d="M 122 180 L 112 198" stroke="#0E3B2A" stroke-width="18" stroke-linecap="round"/><path d="M 122 180 L 112 198" stroke="#33A876" stroke-width="13" stroke-linecap="round"/><ellipse cx="122" cy="102" rx="50" ry="52" fill="#33A876" stroke="#0E3B2A" stroke-width="5"/><path d="M 142 56 l 11 -8 l 3 11 Z" fill="#22815A" stroke="#0E3B2A" stroke-width="3" stroke-linejoin="round"/><path d="M 158 70 l 11 -6 l 1 11 Z" fill="#22815A" stroke="#0E3B2A" stroke-width="3" stroke-linejoin="round"/><rect x="138" y="118" width="9" height="7" rx="2.5" fill="#22815A" opacity="0.55"/><rect x="24" y="78" width="78" height="30" rx="14" fill="#33A876" stroke="#0E3B2A" stroke-width="5"/><rect x="28" y="96" width="66" height="12" rx="6" fill="#A9E8C9" stroke="#0E3B2A" stroke-width="3"/><path d="M 30 96 L 92 96" stroke="#0E3B2A" stroke-width="3" stroke-linecap="round"/><path d="M 44 96 l 5 -8 l 5 8 Z" fill="#FFFFFF" stroke="#0E3B2A" stroke-width="2.5" stroke-linejoin="round"/><circle cx="32" cy="75" r="8" fill="#33A876" stroke="#0E3B2A" stroke-width="3"/><ellipse cx="30" cy="74" rx="2.5" ry="3.5" fill="#0E3B2A"/><circle cx="100" cy="44" r="26" fill="#33A876" stroke="#0E3B2A" stroke-width="5"/><circle cx="100" cy="44" r="15" fill="#FFFFFF" stroke="#0E3B2A" stroke-width="3"/><circle cx="93.5" cy="46" r="6.5" fill="#16181B"/><circle cx="95.5" cy="44" r="2" fill="#FFFFFF"/><circle cx="100" cy="44" r="20" fill="none" stroke="#5E6AD2" stroke-width="5"/><path d="M 120 46 L 146 52" stroke="#5E6AD2" stroke-width="4" fill="none" stroke-linecap="round"/>
</svg>
