<svg xmlns="http://www.w3.org/2000/svg" viewBox="0 0 240 250" fill="none">
<path d="M 150 196 Q 208 200 220 176 Q 226 164 216 160 Q 222 150 210 148 Q 216 138 200 140 Q 172 146 150 172 Z" fill="#33A876" stroke="#0E3B2A" stroke-width="5" stroke-linejoin="round"/><path d="M 178 150 l 8 -12 l 6 10 Z" fill="#22815A" stroke="#0E3B2A" stroke-width="3" stroke-linejoin="round"/><path d="M 196 144 l 8 -11 l 5 10 Z" fill="#22815A" stroke="#0E3B2A" stroke-width="3" stroke-linejoin="round"/><rect x="88" y="208" width="26" height="26" rx="12" fill="#33A876" stroke="#0E3B2A" stroke-width="5"/><rect x="126" y="208" width="26" height="26" rx="12" fill="#33A876" stroke="#0E3B2A" stroke-width="5"/><ellipse cx="120" cy="188" rx="46" ry="38" fill="#33A876" stroke="#0E3B2A" stroke-width="5"/><ellipse cx="120" cy="194" rx="30" ry="27" fill="#A9E8C9"/><path d="M 84 178 L 52 148" stroke="#0E3B2A" stroke-width="18" stroke-linecap="round"/><path d="M 84 178 L 52 148" stroke="#33A876" stroke-width="13" stroke-linecap="round"/><path d="M 156 178 L 178 196" stroke="#0E3B2A" stroke-width="18" stroke-linecap="round"/><path d="M 156 178 L 178 196" stroke="#33A876" stroke-width="13" stroke-linecap="round"/><ellipse cx="120" cy="105" rx="72" ry="52" fill="#33A876" stroke="#0E3B2A" stroke-width="5"/><ellipse cx="120" cy="126" rx="48" ry="27" fill="#A9E8C9" stroke="#0E3B2A" stroke-width="5"/><ellipse cx="104" cy="112" rx="4.5" ry="6" fill="#0E3B2A"/><ellipse cx="136" cy="112" rx="4.5" ry="6" fill="#0E3B2A"/><path d="M 88 128 Q 120 150 152 128" stroke="#0E3B2A" stroke-width="5" stroke-linecap="round" fill="none"/><path d="M 100 133 l 7 9 l 7 -6 Z" fill="#FFFFFF" stroke="#0E3B2A" stroke-width="2.5" stroke-linejoin="round"/><path d="M 134 135 l 6 8 l 7 -7 Z" fill="#FFFFFF" stroke="#0E3B2A" stroke-width="2.5" stroke-linejoin="round"/><circle cx="86" cy="52" r="26" fill="#33A876" stroke="#0E3B2A" stroke-width="5"/><circle cx="86" cy="52" r="15" fill="#FFFFFF" stroke="#0E3B2A" stroke-width="3"/><circle cx="86" cy="54" r="6.5" fill="#16181B"/><circle cx="88.2" cy="51.8" r="2" fill="#FFFFFF"/><circle cx="154" cy="52" r="26" fill="#33A876" stroke="#0E3B2A" stroke-width="5"/><circle cx="154" cy="52" r="15" fill="#FFFFFF" stroke="#0E3B2A" stroke-width="3"/><circle cx="154" cy="54" r="6.5" fill="#16181B"/><circle cx="156.2" cy="51.8" r="2" fill="#FFFFFF"/><circle cx="86" cy="52" r="20" fill="none" fill-opacity="0.92" stroke="#5E6AD2" stroke-width="5"/><circle cx="154" cy="52" r="20" fill="none" fill-opacity="0.92" stroke="#5E6AD2" stroke-width="5"/><path d="M 106 52 Q 120 44 134 52" stroke="#5E6AD2" stroke-width="5" fill="none"/>
</svg>
