<svg xmlns="http://www.w3.org/2000/svg" viewBox="0 0 240 160" fill="none">
<ellipse cx="120" cy="118" rx="72" ry="40" fill="#33A876" stroke="#0E3B2A" stroke-width="5"/><circle cx="86" cy="72" r="26" fill="#33A876" stroke="#0E3B2A" stroke-width="5"/><circle cx="86" cy="72" r="15" fill="#FFFFFF" stroke="#0E3B2A" stroke-width="3"/><circle cx="86" cy="74" r="6.5" fill="#16181B"/><circle cx="88.2" cy="71.8" r="2" fill="#FFFFFF"/><circle cx="154" cy="72" r="26" fill="#33A876" stroke="#0E3B2A" stroke-width="5"/><circle cx="154" cy="72" r="15" fill="#FFFFFF" stroke="#0E3B2A" stroke-width="3"/><circle cx="154" cy="74" r="6.5" fill="#16181B"/><circle cx="156.2" cy="71.8" r="2" fill="#FFFFFF"/><circle cx="86" cy="72" r="20" fill="none" stroke="#5E6AD2" stroke-width="5"/><circle cx="154" cy="72" r="20" fill="none" stroke="#5E6AD2" stroke-width="5"/><path d="M 106 72 Q 120 64 134 72" stroke="#5E6AD2" stroke-width="5" fill="none"/><path d="M 0 112 Q 20 104 40 112 T 80 112 T 120 112 T 160 112 T 200 112 T 240 112 L 240 150 L 0 150 Z" fill="#5E6AD2" fill-opacity="0.30"/><path d="M 0 112 Q 20 104 40 112 T 80 112 T 120 112 T 160 112 T 200 112 T 240 112" stroke="#5E6AD2" stroke-width="4" fill="none"/><path d="M 28 128 q 10 -5 20 0" stroke="#5E6AD2" stroke-width="3" fill="none" opacity="0.7"/><path d="M 190 132 q 10 -5 20 0" stroke="#5E6AD2" stroke-width="3" fill="none" opacity="0.7"/>
</svg>
