<svg xmlns="http://www.w3.org/2000/svg" viewBox="0 0 240 250" fill="none">
<path d="M 150 196 Q 208 200 220 176 Q 226 164 216 160 Q 222 150 210 148 Q 216 138 200 140 Q 172 146 150 172 Z" fill="#33A876" stroke="#0E3B2A" stroke-width="5" stroke-linejoin="round"/><path d="M 164 158 l 7 -10 l 5 9 Z" fill="#22815A" stroke="#0E3B2A" stroke-width="3" stroke-linejoin="round"/><path d="M 178 150 l 8 -12 l 6 10 Z" fill="#22815A" stroke="#0E3B2A" stroke-width="3" stroke-linejoin="round"/><path d="M 196 144 l 8 -11 l 5 10 Z" fill="#22815A" stroke="#0E3B2A" stroke-width="3" stroke-linejoin="round"/><rect x="88" y="208" width="26" height="26" rx="12" fill="#33A876" stroke="#0E3B2A" stroke-width="5"/><line x1="97" y1="228" x2="97" y2="234" stroke="#0E3B2A" stroke-width="2.5"/><line x1="105" y1="228" x2="105" y2="234" stroke="#0E3B2A" stroke-width="2.5"/><rect x="126" y="208" width="26" height="26" rx="12" fill="#33A876" stroke="#0E3B2A" stroke-width="5"/><line x1="135" y1="228" x2="135" y2="234" stroke="#0E3B2A" stroke-width="2.5"/><line x1="143" y1="228" x2="143" y2="234" stroke="#0E3B2A" stroke-width="2.5"/><ellipse cx="120" cy="188" rx="46" ry="38" fill="#33A876" stroke="#0E3B2A" stroke-width="5"/><ellipse cx="120" cy="194" rx="30" ry="27" fill="#A9E8C9" stroke="#0E3B2A" stroke-width="3"/><path d="M 94 188 Q 120 194 146 188" stroke="#0E3B2A" stroke-width="2.5" opacity="0.18" fill="none"/><path d="M 96 200 Q 120 206 144 200" stroke="#0E3B2A" stroke-width="2.5" opacity="0.18" fill="none"/><path d="M 88 178 L 70 200" stroke="#0E3B2A" stroke-width="18" stroke-linecap="round"/><path d="M 88 178 L 70 200" stroke="#33A876" stroke-width="13" stroke-linecap="round"/><circle cx="69" cy="202" r="11" fill="#33A876" stroke="#0E3B2A" stroke-width="5"/><g transform="translate(0 0) rotate(170 69 202)"><line x1="65" y1="191" x2="65" y2="198" stroke="#0E3B2A" stroke-width="2.5"/><line x1="72" y1="191" x2="72" y2="198" stroke="#0E3B2A" stroke-width="2.5"/></g><path d="M 152 178 L 172 200" stroke="#0E3B2A" stroke-width="18" stroke-linecap="round"/><path d="M 152 178 L 172 200" stroke="#33A876" stroke-width="13" stroke-linecap="round"/><circle cx="173" cy="202" r="11" fill="#33A876" stroke="#0E3B2A" stroke-width="5"/><g transform="translate(0 0) rotate(190 173 202)"><line x1="169" y1="191" x2="169" y2="198" stroke="#0E3B2A" stroke-width="2.5"/><line x1="176" y1="191" x2="176" y2="198" stroke="#0E3B2A" stroke-width="2.5"/></g><ellipse cx="118" cy="105" rx="70" ry="52" fill="#33A876" stroke="#0E3B2A" stroke-width="5"/><rect x="172" y="88" width="9" height="7" rx="2.5" fill="#22815A" opacity="0.55"/><ellipse cx="100" cy="127" rx="46" ry="26" fill="#A9E8C9" stroke="#0E3B2A" stroke-width="5"/><ellipse cx="82" cy="113" rx="4.5" ry="6" fill="#0E3B2A"/><ellipse cx="112" cy="115" rx="4.5" ry="6" fill="#0E3B2A"/><path d="M 66 130 Q 100 150 138 128" stroke="#0E3B2A" stroke-width="5" stroke-linecap="round" fill="none"/><path d="M 78 134 l 7 9 l 7 -6 Z" fill="#FFFFFF" stroke="#0E3B2A" stroke-width="2.5" stroke-linejoin="round"/><path d="M 114 136 l 7 9 l 7 -6 Z" fill="#FFFFFF" stroke="#0E3B2A" stroke-width="2.5" stroke-linejoin="round"/><circle cx="142" cy="54" r="23" fill="#33A876" stroke="#0E3B2A" stroke-width="5"/><circle cx="142" cy="54" r="13" fill="#FFFFFF" stroke="#0E3B2A" stroke-width="3"/><circle cx="138" cy="56" r="5.5" fill="#16181B"/><circle cx="140" cy="54" r="1.8" fill="#FFFFFF"/><circle cx="78" cy="50" r="26" fill="#33A876" stroke="#0E3B2A" stroke-width="5"/><circle cx="78" cy="50" r="15" fill="#FFFFFF" stroke="#0E3B2A" stroke-width="3"/><circle cx="72" cy="52" r="6.5" fill="#16181B"/><circle cx="74.2" cy="49.8" r="2" fill="#FFFFFF"/><circle cx="78" cy="50" r="20" fill="none" stroke="#5E6AD2" stroke-width="5"/><circle cx="142" cy="54" r="17.5" fill="none" stroke="#5E6AD2" stroke-width="5"/><path d="M 98 50 Q 110 46 124.5 52" stroke="#5E6AD2" stroke-width="5" fill="none"/><path d="M 159.5 52 L 180 56" stroke="#5E6AD2" stroke-width="4" fill="none" stroke-linecap="round"/>
</svg>
