<svg xmlns="http://www.w3.org/2000/svg" viewBox="0 0 240 250" fill="none">
<g transform="translate(240 0) scale(-1 1)"><path d="M 150 196 Q 208 200 220 176 Q 226 164 216 160 Q 222 150 210 148 Q 216 138 200 140 Q 172 146 150 172 Z" fill="#33A876" stroke="#0E3B2A" stroke-width="5" stroke-linejoin="round"/><path d="M 178 150 l 8 -12 l 6 10 Z" fill="#22815A" stroke="#0E3B2A" stroke-width="3" stroke-linejoin="round"/><path d="M 196 144 l 8 -11 l 5 10 Z" fill="#22815A" stroke="#0E3B2A" stroke-width="3" stroke-linejoin="round"/></g><rect x="88" y="208" width="26" height="26" rx="12" fill="#33A876" stroke="#0E3B2A" stroke-width="5"/><rect x="126" y="208" width="26" height="26" rx="12" fill="#33A876" stroke="#0E3B2A" stroke-width="5"/><ellipse cx="120" cy="188" rx="46" ry="38" fill="#33A876" stroke="#0E3B2A" stroke-width="5"/><ellipse cx="120" cy="194" rx="30" ry="27" fill="#A9E8C9"/><path d="M 84 178 L 60 196" stroke="#0E3B2A" stroke-width="18" stroke-linecap="round"/><path d="M 84 178 L 60 196" stroke="#33A876" stroke-width="13" stroke-linecap="round"/><ellipse cx="120" cy="105" rx="72" ry="52" fill="#33A876" stroke="#0E3B2A" stroke-width="5"/><ellipse cx="120" cy="126" rx="48" ry="27" fill="#A9E8C9" stroke="#0E3B2A" stroke-width="5"/><ellipse cx="104" cy="112" rx="4.5" ry="6" fill="#0E3B2A"/><ellipse cx="136" cy="112" rx="4.5" ry="6" fill="#0E3B2A"/><path d="M 84 124 Q 120 154 156 124 Q 120 140 84 124 Z" fill="#16181B" stroke="#0E3B2A" stroke-width="4" stroke-linejoin="round"/><path d="M 96 128 l 6 8 l 6 -5 Z" fill="#FFFFFF"/><path d="M 138 130 l 5 7 l 6 -6 Z" fill="#FFFFFF"/><circle cx="86" cy="52" r="26" fill="#33A876" stroke="#0E3B2A" stroke-width="5"/><circle cx="86" cy="52" r="15" fill="#FFFFFF" stroke="#0E3B2A" stroke-width="3"/><circle cx="86" cy="54" r="6.5" fill="#16181B"/><circle cx="88.2" cy="51.8" r="2" fill="#FFFFFF"/><circle cx="154" cy="52" r="26" fill="#33A876" stroke="#0E3B2A" stroke-width="5"/><circle cx="154" cy="52" r="15" fill="#FFFFFF" stroke="#0E3B2A" stroke-width="3"/><circle cx="154" cy="54" r="6.5" fill="#16181B"/><circle cx="156.2" cy="51.8" r="2" fill="#FFFFFF"/><circle cx="86" cy="52" r="20" fill="none" fill-opacity="0.92" stroke="#5E6AD2" stroke-width="5"/><circle cx="154" cy="52" r="20" fill="none" fill-opacity="0.92" stroke="#5E6AD2" stroke-width="5"/><path d="M 106 52 Q 120 44 134 52" stroke="#5E6AD2" stroke-width="5" fill="none"/><path d="M 150 180 L 170 166" stroke="#0E3B2A" stroke-width="18" stroke-linecap="round"/><path d="M 150 180 L 170 166" stroke="#33A876" stroke-width="13" stroke-linecap="round"/><g transform="rotate(-8 178 160)"><rect x="152" y="128" width="52" height="64" rx="6" fill="#FFFFFF" stroke="#0E3B2A" stroke-width="4"/><line x1="160" y1="142" x2="196" y2="142" stroke="#9094A0" stroke-width="4" stroke-linecap="round"/><line x1="160" y1="152" x2="188" y2="152" stroke="#9094A0" stroke-width="4" stroke-linecap="round"/><path d="M 164 172 l 8 8 l 16 -16" stroke="#2EBD85" stroke-width="6" fill="none" stroke-linecap="round" stroke-linejoin="round"/></g>
</svg>
